<?xml version="1.0" encoding="UTF-8" standalone="no"?>
<!DOCTYPE svg PUBLIC "-//W3C//DTD SVG 1.1//EN" "http://www.w3.org/Graphics/SVG/1.1/DTD/svg11.dtd">
<svg width="100%" height="100%" viewBox="0 0 800 600" version="1.1" xmlns="http://www.w3.org/2000/svg" xmlns:xlink="http://www.w3.org/1999/xlink" xml:space="preserve" xmlns:serif="http://www.serif.com/" style="fill-rule:evenodd;clip-rule:evenodd;stroke-miterlimit:10;">
    <g id="Layer_1" transform="matrix(1.78849,0,0,1.78849,-315.395,-105.987)">
        <path d="M400,131L400,227" style="fill:none;stroke:rgb(212,159,200);stroke-width:5px;"/>
        <circle cx="400" cy="123" r="10" style="fill:none;stroke:rgb(212,159,200);stroke-width:5px;"/>
        <path d="M400,157L379,136" style="fill:none;stroke:rgb(212,159,200);stroke-width:5px;"/>
        <path d="M400,157L419,138" style="fill:none;stroke:rgb(212,159,200);stroke-width:5px;"/>
        <path d="M400,179L381,160" style="fill:none;stroke:rgb(212,159,200);stroke-width:5px;"/>
        <path d="M400,179L419,160" style="fill:none;stroke:rgb(212,159,200);stroke-width:5px;"/>
        <path d="M400,201L383.5,184.5" style="fill:none;stroke:rgb(212,159,200);stroke-width:5px;"/>
        <path d="M400,201L420.5,180.5" style="fill:none;stroke:rgb(212,159,200);stroke-width:5px;"/>
        <path d="M352,143.86L400,227" style="fill:none;stroke:rgb(212,159,200);stroke-width:5px;"/>
        <circle cx="348" cy="136.93" r="10" style="fill:none;stroke:rgb(212,159,200);stroke-width:5px;"/>
        <path d="M365,166.38L336.31,158.69" style="fill:none;stroke:rgb(212,159,200);stroke-width:5px;"/>
        <path d="M365,166.38L371.96,140.42" style="fill:none;stroke:rgb(212,159,200);stroke-width:5px;"/>
        <path d="M376,185.43L350.04,178.48" style="fill:none;stroke:rgb(212,159,200);stroke-width:5px;"/>
        <path d="M376,185.43L382.96,159.48" style="fill:none;stroke:rgb(212,159,200);stroke-width:5px;"/>
        <path d="M387,204.48L364.46,198.44" style="fill:none;stroke:rgb(212,159,200);stroke-width:5px;"/>
        <path d="M387,204.48L394.5,176.48" style="fill:none;stroke:rgb(212,159,200);stroke-width:5px;"/>
        <path d="M316.86,179L400,227" style="fill:none;stroke:rgb(212,159,200);stroke-width:5px;"/>
        <circle cx="309.93" cy="175" r="10" style="fill:none;stroke:rgb(212,159,200);stroke-width:5px;"/>
        <path d="M339.38,192L310.69,199.69" style="fill:none;stroke:rgb(212,159,200);stroke-width:5px;"/>
        <path d="M339.38,192L332.42,166.04" style="fill:none;stroke:rgb(212,159,200);stroke-width:5px;"/>
        <path d="M358.43,203L332.48,209.96" style="fill:none;stroke:rgb(212,159,200);stroke-width:5px;"/>
        <path d="M358.43,203L351.48,177.05" style="fill:none;stroke:rgb(212,159,200);stroke-width:5px;"/>
        <path d="M377.48,214L354.94,220.04" style="fill:none;stroke:rgb(212,159,200);stroke-width:5px;"/>
        <path d="M377.48,214L369.98,186" style="fill:none;stroke:rgb(212,159,200);stroke-width:5px;"/>
        <path d="M304,227L400,227" style="fill:none;stroke:rgb(212,159,200);stroke-width:5px;"/>
        <circle cx="296" cy="227" r="10" style="fill:none;stroke:rgb(212,159,200);stroke-width:5px;"/>
        <path d="M330,227L309,248" style="fill:none;stroke:rgb(212,159,200);stroke-width:5px;"/>
        <path d="M330,227L311,208" style="fill:none;stroke:rgb(212,159,200);stroke-width:5px;"/>
        <path d="M352,227L333,246" style="fill:none;stroke:rgb(212,159,200);stroke-width:5px;"/>
        <path d="M352,227L333,208" style="fill:none;stroke:rgb(212,159,200);stroke-width:5px;"/>
        <path d="M374,227L357.5,243.5" style="fill:none;stroke:rgb(212,159,200);stroke-width:5px;"/>
        <path d="M374,227L353.5,206.5" style="fill:none;stroke:rgb(212,159,200);stroke-width:5px;"/>
        <path d="M316.86,275L400,227" style="fill:none;stroke:rgb(212,159,200);stroke-width:5px;"/>
        <circle cx="309.93" cy="279" r="10" style="fill:none;stroke:rgb(212,159,200);stroke-width:5px;"/>
        <path d="M339.38,262L331.69,290.69" style="fill:none;stroke:rgb(212,159,200);stroke-width:5px;"/>
        <path d="M339.38,262L313.42,255.04" style="fill:none;stroke:rgb(212,159,200);stroke-width:5px;"/>
        <path d="M358.43,251L351.48,276.96" style="fill:none;stroke:rgb(212,159,200);stroke-width:5px;"/>
        <path d="M358.43,251L332.48,244.05" style="fill:none;stroke:rgb(212,159,200);stroke-width:5px;"/>
        <path d="M377.48,240L371.44,262.54" style="fill:none;stroke:rgb(212,159,200);stroke-width:5px;"/>
        <path d="M377.48,240L349.48,232.5" style="fill:none;stroke:rgb(212,159,200);stroke-width:5px;"/>
        <path d="M352,310.14L400,227" style="fill:none;stroke:rgb(212,159,200);stroke-width:5px;"/>
        <circle cx="348" cy="317.07" r="10" style="fill:none;stroke:rgb(212,159,200);stroke-width:5px;"/>
        <path d="M365,287.62L372.69,316.31" style="fill:none;stroke:rgb(212,159,200);stroke-width:5px;"/>
        <path d="M365,287.62L339.04,294.58" style="fill:none;stroke:rgb(212,159,200);stroke-width:5px;"/>
        <path d="M376,268.57L382.96,294.52" style="fill:none;stroke:rgb(212,159,200);stroke-width:5px;"/>
        <path d="M376,268.57L350.05,275.52" style="fill:none;stroke:rgb(212,159,200);stroke-width:5px;"/>
        <path d="M387,249.52L393.04,272.06" style="fill:none;stroke:rgb(212,159,200);stroke-width:5px;"/>
        <path d="M387,249.52L359,257.02" style="fill:none;stroke:rgb(212,159,200);stroke-width:5px;"/>
        <path d="M400,323L400,227" style="fill:none;stroke:rgb(212,159,200);stroke-width:5px;"/>
        <circle cx="400" cy="331" r="10" style="fill:none;stroke:rgb(212,159,200);stroke-width:5px;"/>
        <path d="M400,297L421,318" style="fill:none;stroke:rgb(212,159,200);stroke-width:5px;"/>
        <path d="M400,297L381,316" style="fill:none;stroke:rgb(212,159,200);stroke-width:5px;"/>
        <path d="M400,275L419,294" style="fill:none;stroke:rgb(212,159,200);stroke-width:5px;"/>
        <path d="M400,275L381,294" style="fill:none;stroke:rgb(212,159,200);stroke-width:5px;"/>
        <path d="M400,253L416.5,269.5" style="fill:none;stroke:rgb(212,159,200);stroke-width:5px;"/>
        <path d="M400,253L379.5,273.5" style="fill:none;stroke:rgb(212,159,200);stroke-width:5px;"/>
        <path d="M448,310.14L400,227" style="fill:none;stroke:rgb(212,159,200);stroke-width:5px;"/>
        <circle cx="452" cy="317.07" r="10" style="fill:none;stroke:rgb(212,159,200);stroke-width:5px;"/>
        <path d="M435,287.62L463.69,295.31" style="fill:none;stroke:rgb(212,159,200);stroke-width:5px;"/>
        <path d="M435,287.62L428.05,313.58" style="fill:none;stroke:rgb(212,159,200);stroke-width:5px;"/>
        <path d="M424,268.57L449.96,275.52" style="fill:none;stroke:rgb(212,159,200);stroke-width:5px;"/>
        <path d="M424,268.57L417.05,294.52" style="fill:none;stroke:rgb(212,159,200);stroke-width:5px;"/>
        <path d="M413,249.52L435.54,255.56" style="fill:none;stroke:rgb(212,159,200);stroke-width:5px;"/>
        <path d="M413,249.52L405.5,277.52" style="fill:none;stroke:rgb(212,159,200);stroke-width:5px;"/>
        <path d="M483.14,275L400,227" style="fill:none;stroke:rgb(212,159,200);stroke-width:5px;"/>
        <circle cx="490.07" cy="279" r="10" style="fill:none;stroke:rgb(212,159,200);stroke-width:5px;"/>
        <path d="M460.62,262L489.31,254.31" style="fill:none;stroke:rgb(212,159,200);stroke-width:5px;"/>
        <path d="M460.62,262L467.58,287.95" style="fill:none;stroke:rgb(212,159,200);stroke-width:5px;"/>
        <path d="M441.57,251L467.52,244.04" style="fill:none;stroke:rgb(212,159,200);stroke-width:5px;"/>
        <path d="M441.57,251L448.52,276.95" style="fill:none;stroke:rgb(212,159,200);stroke-width:5px;"/>
        <path d="M422.52,240L445.06,233.96" style="fill:none;stroke:rgb(212,159,200);stroke-width:5px;"/>
        <path d="M422.52,240L430.02,268" style="fill:none;stroke:rgb(212,159,200);stroke-width:5px;"/>
        <path d="M496,227L400,227" style="fill:none;stroke:rgb(212,159,200);stroke-width:5px;"/>
        <circle cx="504" cy="227" r="10" style="fill:none;stroke:rgb(212,159,200);stroke-width:5px;"/>
        <path d="M470,227L491,206" style="fill:none;stroke:rgb(212,159,200);stroke-width:5px;"/>
        <path d="M470,227L489,246" style="fill:none;stroke:rgb(212,159,200);stroke-width:5px;"/>
        <path d="M448,227L467,208" style="fill:none;stroke:rgb(212,159,200);stroke-width:5px;"/>
        <path d="M448,227L467,246" style="fill:none;stroke:rgb(212,159,200);stroke-width:5px;"/>
        <path d="M426,227L442.5,210.5" style="fill:none;stroke:rgb(212,159,200);stroke-width:5px;"/>
        <path d="M426,227L446.5,247.5" style="fill:none;stroke:rgb(212,159,200);stroke-width:5px;"/>
        <path d="M483.14,179L400,227" style="fill:none;stroke:rgb(212,159,200);stroke-width:5px;"/>
        <circle cx="490.06" cy="175" r="10" style="fill:none;stroke:rgb(212,159,200);stroke-width:5px;"/>
        <path d="M460.62,192L468.31,163.31" style="fill:none;stroke:rgb(212,159,200);stroke-width:5px;"/>
        <path d="M460.62,192L486.58,198.96" style="fill:none;stroke:rgb(212,159,200);stroke-width:5px;"/>
        <path d="M441.57,203L448.52,177.04" style="fill:none;stroke:rgb(212,159,200);stroke-width:5px;"/>
        <path d="M441.57,203L467.52,209.96" style="fill:none;stroke:rgb(212,159,200);stroke-width:5px;"/>
        <path d="M422.52,214L428.56,191.46" style="fill:none;stroke:rgb(212,159,200);stroke-width:5px;"/>
        <path d="M422.52,214L450.52,221.5" style="fill:none;stroke:rgb(212,159,200);stroke-width:5px;"/>
        <path d="M448,143.86L400,227" style="fill:none;stroke:rgb(212,159,200);stroke-width:5px;"/>
        <circle cx="452" cy="136.93" r="10" style="fill:none;stroke:rgb(212,159,200);stroke-width:5px;"/>
        <path d="M435,166.38L427.31,137.69" style="fill:none;stroke:rgb(212,159,200);stroke-width:5px;"/>
        <path d="M435,166.38L460.95,159.42" style="fill:none;stroke:rgb(212,159,200);stroke-width:5px;"/>
        <path d="M424,185.43L417.04,159.48" style="fill:none;stroke:rgb(212,159,200);stroke-width:5px;"/>
        <path d="M424,185.43L449.95,178.48" style="fill:none;stroke:rgb(212,159,200);stroke-width:5px;"/>
        <path d="M413,204.48L406.96,181.94" style="fill:none;stroke:rgb(212,159,200);stroke-width:5px;"/>
        <path d="M413,204.48L441,196.98" style="fill:none;stroke:rgb(212,159,200);stroke-width:5px;"/>
        <circle cx="400" cy="227" r="30.02" style="fill:none;stroke:rgb(212,159,200);stroke-width:5px;"/>
    </g>
</svg>
